#!OML:ASF H:\Terrain\Patient Classification 1\Walking\steve\steve.ASF
:FULLY-SPECIFIED
:DEGREES
140
root 9.12215 15.7614 -5.89719 9.18337 -13.4095 -5.91819
lowerback -1.93817 5.90675 4.70996
upperback -3.5509 7.88325 1.06854
thorax -2.10542 3.84327 -1.46905
lowerneck -12.0433 -0.801782 -3.43371
upperneck 10.1213 -0.646796 1.29591
head 5.02923 -0.362712 0.910527
rclavicle 9.67666e-014 6.16232e-015
rhumerus -0.172026 4.39718 -82.8105
rradius 48.3313
rwrist -20.4515
rhand -20.4563 -37.1114
rfingers 7.12502
rthumb 5.89933 -67.0092
lclavicle 9.67666e-014 6.16232e-015
lhumerus -76.5622 20.4398 42.7109
lradius 9.44028
lwrist -22.1077
lhand -10.6423 -8.33268
lfingers 7.12502
lthumb 15.3651 21.0764
rfemur 13.3229 3.36682 25.2237
rtibia 18.0474
rfoot 1.84126 18.6994
rtoes 4.97694
lfemur -40.9714 4.35158 -13.1695
ltibia 22.7793
lfoot -8.72843 10.3924
ltoes -11.4035
141
root 9.12208 15.7745 -5.62654 9.2857 -13.1812 -5.59306
lowerback -2.2028 5.81014 4.00887
upperback -3.73202 7.74782 0.961857
thorax -2.22685 3.78743 -1.18704
lowerneck -11.7642 -0.820653 -3.75137
upperneck 9.80583 -0.700715 1.88839
head 4.88907 -0.36051 1.14251
rclavicle 1.01575e-013 2.62955e-014
rhumerus -1.0241 4.34252 -82.865
rradius 48.5961
rwrist -20.0692
rhand -20.9546 -37.5664
rfingers 7.12502
rthumb 5.41819 -67.4772
lclavicle 1.01575e-013 2.62955e-014
lhumerus -76.6099 20.5538 42.2771
lradius 9.27632
lwrist -22.1489
lhand -10.9238 -7.96426
lfingers 7.12502
lthumb 15.0939 21.4654
rfemur 13.1016 4.2944 25.0468
rtibia 19.582
rfoot 4.03445 16.863
rtoes 6.96119
lfemur -41.7143 4.54002 -13.8048
ltibia 24.88
lfoot -7.0825 9.74128
ltoes -7.73502
142
root 9.11458 15.7749 -5.36415 9.29266 -12.9543 -4.76452
lowerback -2.48266 5.74258 2.8191
upperback -3.87029 7.65203 0.636383
thorax -2.32329 3.76364 -0.857995
lowerneck -12.0765 -0.936543 -3.7802
upperneck 10.054 -0.884869 2.23652
head 5.02469 -0.428355 1.24169
rclavicle -5.36917e-014 1.08835e-014
rhumerus -1.87071 3.7731 -83.1189
rradius 48.7956
rwrist -19.4748
rhand -20.8605 -37.4249
rfingers 7.12502
rthumb 5.50907 -67.3333
lclavicle -5.36917e-014 1.08835e-014
lhumerus -76.0056 20.8545 41.9883
lradius 8.77835
lwrist -22.5846
lhand -11.7442 -7.22126
lfingers 7.12502
lthumb 14.3035 22.2661
rfemur 12.4376 4.87426 24.3743
rtibia 21.7535
rfoot 6.17065 14.7917
rtoes 8.15279
lfemur -42.2202 4.928 -15.1753
ltibia 26.8024
lfoot -5.2633 9.14473
ltoes -6.6454
143
root 9.11322 15.7589 -5.0991 9.2596 -12.5602 -4.08313
lowerback -2.80623 5.64949 1.98069
upperback -3.98258 7.52125 0.301709
thorax -2.32285 3.71536 -0.719645
lowerneck -12.265 -1.09785 -3.80063
upperneck 10.3158 -1.14407 2.62627
head 5.1477 -0.529253 1.34666
rclavicle 7.60173e-014 2.78299e-014
rhumerus -3.14033 3.45261 -83.1958
rradius 49.2997
rwrist -19.4148
rhand -19.4111 -36.4332
rfingers 7.12502
rthumb 6.90834 -66.3005
lclavicle 7.60173e-014 2.78299e-014
lhumerus -75.255 21.1102 41.7335
lradius 8.20735
lwrist -23.2651
lhand -13.0854 -5.9883
lfingers 7.12502
lthumb 13.0109 23.586
rfemur 11.5408 5.15049 23.8664
rtibia 24.4496
rfoot 7.68859 12.9167
rtoes 6.44358
lfemur -42.5484 5.2291 -16.4505
ltibia 28.569
lfoot -4.38186 8.59441
ltoes -4.47084
144
root 9.11555 15.7611 -4.82754 8.9935 -12.0546 -3.25317
lowerback -3.02691 5.47447 1.10298
upperback -3.96263 7.287 -0.0470233
thorax -2.24618 3.61707 -0.577995
lowerneck -12.4881 -1.26236 -3.75802
upperneck 10.4783 -1.40281 2.89624
head 5.24561 -0.634058 1.40322
rclavicle 3.26131e-016 -9.14409e-015
rhumerus -4.50223 3.31449 -83.2022
rradius 49.8559
rwrist -19.5272
rhand -18.2343 -35.7746
rfingers 7.12502
rthumb 8.04421 -65.6015
lclavicle 3.26131e-016 -9.14409e-015
lhumerus -74.6847 21.3714 41.4126
lradius 7.92559
lwrist -23.4695
lhand -13.8393 -5.62322
lfingers 7.12502
lthumb 12.2841 23.996
rfemur 10.7112 5.1462 23.1391
rtibia 27.2997
rfoot 9.47505 10.8378
rtoes 4.11584
lfemur -42.6003 5.57029 -18.0055
ltibia 30.2948
lfoot -3.71747 7.49461
ltoes -5.59073
145
root 9.11757 15.7788 -4.56646 8.6498 -11.5544 -2.41355
lowerback -3.06447 5.28767 0.26824
upperback -3.88814 7.04246 -0.395132
thorax -2.20722 3.51127 -0.474076
lowerneck -12.7903 -1.44269 -3.81549
upperneck 10.6086 -1.66261 3.16518
head 5.34835 -0.742003 1.47484
rclavicle 2.66558e-014 1.98785e-016
rhumerus -5.66552 2.77202 -83.4088
rradius 50.1287
rwrist -19.0785
rhand -19.8591 -36.4414
rfingers 7.12502
rthumb 6.47584 -66.3224
lclavicle 2.66558e-014 1.98785e-016
lhumerus -74.0049 21.7563 41.1153
lradius 7.67856
lwrist -23.3882
lhand -13.9179 -5.87933
lfingers 7.12502
lthumb 12.2083 23.7444
rfemur 9.81603 5.04253 22.3207
rtibia 30.1586
rfoot 11.8212 8.17274
rtoes 3.13138
lfemur -42.5203 6.0728 -19.6516
ltibia 32.0047
lfoot -2.9311 5.59553
ltoes -8.91617
146
root 9.11914 15.796 -4.32035 8.47508 -11.0102 -1.90898
lowerback -3.06892 5.09564 -0.20987
upperback -3.86444 6.78822 -0.683495
thorax -2.20222 3.39185 -0.508285
lowerneck -12.8207 -1.54819 -3.88717
upperneck 10.4936 -1.83334 3.50372
head 5.32753 -0.803791 1.57834
rclavicle -9.71094e-014 -7.55382e-015
rhumerus -6.63753 2.10562 -83.8616
rradius 50.1744
rwrist -18.673
rhand -21.9001 -37.2148
rfingers 7.12502
rthumb 4.50519 -67.1468
lclavicle -9.71094e-014 -7.55382e-015
lhumerus -73.345 22.182 40.7771
lradius 7.66403
lwrist -23.5882
lhand -14.2326 -5.92678
lfingers 7.12502
lthumb 11.9048 23.7148
rfemur 8.58642 4.7274 21.7673
rtibia 33.1808
rfoot 14.2039 6.09214
rtoes 1.10777
lfemur -42.403 6.36269 -20.7764
ltibia 33.3972
lfoot -2.59852 3.60956
ltoes -9.38899
147
root 9.12092 15.8132 -4.08437 8.2368 -11.0223 -2.26534
lowerback -2.60413 5.11649 0.11107
upperback -3.90739 6.81168 -0.731339
thorax -2.46255 3.39332 -0.779209
lowerneck -12.3962 -1.55625 -3.71579
upperneck 10.0906 -1.88759 3.55538
head 5.13214 -0.824086 1.56318
rclavicle -7.6821e-014 -5.96354e-015
rhumerus -7.96962 1.76677 -84.3506
rradius 50.4105
rwrist -18.6708
rhand -21.512 -37.0019
rfingers 7.12502
rthumb 4.88003 -66.9257
lclavicle -7.6821e-014 -5.96354e-015
lhumerus -72.8342 22.5426 40.3636
lradius 7.82112
lwrist -23.8567
lhand -14.9479 -6.12261
lfingers 7.12502
lthumb 11.215 23.5576
rfemur 7.24429 5.15859 22.1997
rtibia 36.5128
rfoot 16.6636 5.17478
rtoes -2.78962
lfemur -41.7995 6.7975 -20.6126
ltibia 34.283
lfoot -2.7844 2.63368
ltoes -7.15774
148
root 9.12553 15.8389 -3.84472 7.93196 -10.8599 -1.72562
lowerback -2.2739 5.00183 -0.38884
upperback -3.93925 6.65545 -0.995416
thorax -2.70711 3.32303 -0.811073
lowerneck -12.1619 -1.58992 -3.4889
upperneck 9.89037 -1.95605 3.39773
head 5.02969 -0.86199 1.47221
rclavicle -1.54866e-014 5.96354e-015
rhumerus -9.58316 1.73639 -84.7169
rradius 50.888
rwrist -18.8567
rhand -19.7867 -36.0163
rfingers 7.12502
rthumb 6.54576 -65.8952
lclavicle -1.54866e-014 5.96354e-015
lhumerus -72.3465 22.9494 39.9308
lradius 7.98796
lwrist -23.9259
lhand -15.5972 -6.30821
lfingers 7.12502
lthumb 10.5887 23.405
rfemur 5.80911 5.23851 21.6118
rtibia 39.9504
rfoot 18.8127 5.4968
rtoes -9.02907
lfemur -41.0662 6.90898 -21.4672
ltibia 35.0125
lfoot -3.22768 2.15507
ltoes -6.01077
149
root 9.12593 15.8662 -3.60903 7.76258 -10.5125 -0.164154
lowerback -2.36504 4.74393 -1.97576
upperback -3.92498 6.30854 -1.47928
thorax -2.76304 3.18489 -0.430566
lowerneck -12.4745 -1.62051 -3.42351
upperneck 10.0714 -1.99261 3.3142
head 5.13772 -0.879937 1.43121
rclavicle -5.06031e-014 6.36111e-015
rhumerus -10.8529 1.52197 -85.1222
rradius 51.0359
rwrist -18.7463
rhand -19.7662 -35.9718
rfingers 7.12502
rthumb 6.5655 -65.85
lclavicle -5.06031e-014 6.36111e-015
lhumerus -71.8091 23.6068 39.5855
lradius 8.23073
lwrist -24.0654
lhand -15.2049 -7.07298
lfingers 7.12502
lthumb 10.9671 22.6206
rfemur 4.12753 5.04012 19.8709
rtibia 43.4353
rfoot 20.6196 3.41561
rtoes -7.99037
lfemur -40.3823 6.77894 -23.5348
ltibia 35.4026
lfoot -3.74787 1.48744
ltoes -6.51545
